<mxfile host="Electron" modified="2023-11-07T13:25:59.153Z" agent="Mozilla/5.0 (Windows NT 10.0; Win64; x64) AppleWebKit/537.36 (KHTML, like Gecko) draw.io/22.0.3 Chrome/114.0.5735.289 Electron/25.8.4 Safari/537.36" etag="k1eOHc6KD-L5KQnFfhFO" version="22.0.3" type="device">
  <diagram name="Page-1" id="iMQ4scvDYvINq1XZOUV-">
    <mxGraphModel dx="978" dy="578" grid="0" gridSize="10" guides="1" tooltips="1" connect="1" arrows="1" fold="1" page="1" pageScale="1" pageWidth="850" pageHeight="1100" math="0" shadow="0">
      <root>
        <mxCell id="0" />
        <mxCell id="1" parent="0" />
        <mxCell id="ECK3vgAFCEgA1QiS_V0F-1" value="&amp;nbsp;wash dishes" style="rounded=1;whiteSpace=wrap;html=1;align=left;fillColor=#f5f5f5;fontColor=#333333;strokeColor=#666666;" vertex="1" parent="1">
          <mxGeometry x="80" y="140" width="330" height="60" as="geometry" />
        </mxCell>
        <mxCell id="ECK3vgAFCEgA1QiS_V0F-3" value="" style="shape=ellipse;fillColor=#417D2C;strokeColor=#82b366;shadow=1;aspect=fixed;sketch=0;html=1;labelPosition=center;verticalLabelPosition=bottom;align=center;verticalAlign=top;" vertex="1" parent="1">
          <mxGeometry x="490" y="50" width="56" height="56" as="geometry" />
        </mxCell>
        <mxCell id="ECK3vgAFCEgA1QiS_V0F-4" value="" style="dashed=0;html=1;shape=mxgraph.gmdl.plus;strokeColor=#ffffff;strokeWidth=2;shadow=0;sketch=0;" vertex="1" parent="ECK3vgAFCEgA1QiS_V0F-3">
          <mxGeometry x="20" y="20" width="16" height="16" as="geometry" />
        </mxCell>
        <mxCell id="ECK3vgAFCEgA1QiS_V0F-13" value="" style="shape=ellipse;dashed=0;strokeColor=#d79b00;shadow=1;fontSize=13;align=center;verticalAlign=top;labelPosition=center;verticalLabelPosition=bottom;html=1;aspect=fixed;fillColor=#ffe6cc;" vertex="1" parent="1">
          <mxGeometry x="420" y="142" width="56" height="56" as="geometry" />
        </mxCell>
        <mxCell id="ECK3vgAFCEgA1QiS_V0F-14" value="" style="dashed=0;html=1;shape=mxgraph.gmdl.edit;strokeColor=none;fillColor=#737373;shadow=0;sketch=0;html=1;labelPosition=center;verticalLabelPosition=bottom;align=center;verticalAlign=top;" vertex="1" parent="ECK3vgAFCEgA1QiS_V0F-13">
          <mxGeometry x="18" y="18" width="20" height="20" as="geometry" />
        </mxCell>
        <mxCell id="ECK3vgAFCEgA1QiS_V0F-15" value="" style="shape=ellipse;dashed=0;strokeColor=#b85450;shadow=1;fontSize=13;align=center;verticalAlign=top;labelPosition=center;verticalLabelPosition=bottom;html=1;aspect=fixed;fillColor=#f8cecc;" vertex="1" parent="1">
          <mxGeometry x="490" y="140" width="56" height="56" as="geometry" />
        </mxCell>
        <mxCell id="ECK3vgAFCEgA1QiS_V0F-16" value="" style="dashed=0;html=1;shape=mxgraph.gmdl.x;strokeColor=#737373;strokeWidth=2;shadow=0;sketch=0;html=1;labelPosition=center;verticalLabelPosition=bottom;align=center;verticalAlign=top;" vertex="1" parent="ECK3vgAFCEgA1QiS_V0F-15">
          <mxGeometry x="20" y="20" width="16" height="16" as="geometry" />
        </mxCell>
        <mxCell id="ECK3vgAFCEgA1QiS_V0F-17" value="&amp;nbsp;cook dinner" style="rounded=1;whiteSpace=wrap;html=1;align=left;fillColor=#dae8fc;strokeColor=#6c8ebf;" vertex="1" parent="1">
          <mxGeometry x="80" y="210" width="330" height="60" as="geometry" />
        </mxCell>
        <mxCell id="ECK3vgAFCEgA1QiS_V0F-19" value="" style="shape=ellipse;dashed=0;strokeColor=#d79b00;shadow=1;fontSize=13;align=center;verticalAlign=top;labelPosition=center;verticalLabelPosition=bottom;html=1;aspect=fixed;fillColor=#ffe6cc;" vertex="1" parent="1">
          <mxGeometry x="420" y="212" width="56" height="56" as="geometry" />
        </mxCell>
        <mxCell id="ECK3vgAFCEgA1QiS_V0F-20" value="" style="dashed=0;html=1;shape=mxgraph.gmdl.edit;strokeColor=none;fillColor=#737373;shadow=0;sketch=0;html=1;labelPosition=center;verticalLabelPosition=bottom;align=center;verticalAlign=top;" vertex="1" parent="ECK3vgAFCEgA1QiS_V0F-19">
          <mxGeometry x="18" y="18" width="20" height="20" as="geometry" />
        </mxCell>
        <mxCell id="ECK3vgAFCEgA1QiS_V0F-21" value="" style="shape=ellipse;dashed=0;strokeColor=#b85450;shadow=1;fontSize=13;align=center;verticalAlign=top;labelPosition=center;verticalLabelPosition=bottom;html=1;aspect=fixed;fillColor=#f8cecc;" vertex="1" parent="1">
          <mxGeometry x="490" y="210" width="56" height="56" as="geometry" />
        </mxCell>
        <mxCell id="ECK3vgAFCEgA1QiS_V0F-22" value="" style="dashed=0;html=1;shape=mxgraph.gmdl.x;strokeColor=#737373;strokeWidth=2;shadow=0;sketch=0;html=1;labelPosition=center;verticalLabelPosition=bottom;align=center;verticalAlign=top;" vertex="1" parent="ECK3vgAFCEgA1QiS_V0F-21">
          <mxGeometry x="20" y="20" width="16" height="16" as="geometry" />
        </mxCell>
        <mxCell id="ECK3vgAFCEgA1QiS_V0F-23" value="" style="html=1;shadow=0;dashed=0;shape=mxgraph.bootstrap.checkbox2;labelPosition=right;verticalLabelPosition=middle;align=left;verticalAlign=middle;gradientColor=#DEDEDE;fillColor=#EDEDED;checked=0;spacing=5;checkedFill=#0085FC;checkedStroke=#ffffff;sketch=0;" vertex="1" parent="1">
          <mxGeometry x="40" y="156.5" width="30" height="27" as="geometry" />
        </mxCell>
        <mxCell id="ECK3vgAFCEgA1QiS_V0F-25" value="" style="verticalLabelPosition=bottom;verticalAlign=top;html=1;shape=mxgraph.basic.tick" vertex="1" parent="1">
          <mxGeometry x="50" y="163" width="10" height="14" as="geometry" />
        </mxCell>
        <mxCell id="ECK3vgAFCEgA1QiS_V0F-27" value="" style="html=1;shadow=0;dashed=0;shape=mxgraph.bootstrap.checkbox2;labelPosition=right;verticalLabelPosition=middle;align=left;verticalAlign=middle;gradientColor=#DEDEDE;fillColor=#EDEDED;checked=0;spacing=5;checkedFill=#0085FC;checkedStroke=#ffffff;sketch=0;" vertex="1" parent="1">
          <mxGeometry x="40" y="226.5" width="30" height="27" as="geometry" />
        </mxCell>
        <mxCell id="ECK3vgAFCEgA1QiS_V0F-28" value="" style="rounded=1;whiteSpace=wrap;html=1;align=left;" vertex="1" parent="1">
          <mxGeometry x="80" y="48" width="400" height="52" as="geometry" />
        </mxCell>
        <mxCell id="ECK3vgAFCEgA1QiS_V0F-29" value="" style="endArrow=none;html=1;strokeWidth=1;rounded=0;" edge="1" parent="1">
          <mxGeometry width="50" height="50" relative="1" as="geometry">
            <mxPoint x="85" y="171" as="sourcePoint" />
            <mxPoint x="160" y="171" as="targetPoint" />
          </mxGeometry>
        </mxCell>
        <mxCell id="ECK3vgAFCEgA1QiS_V0F-30" value="do homework" style="rounded=1;whiteSpace=wrap;html=1;align=left;fillColor=#dae8fc;strokeColor=#6c8ebf;" vertex="1" parent="1">
          <mxGeometry x="80" y="280" width="330" height="60" as="geometry" />
        </mxCell>
        <mxCell id="ECK3vgAFCEgA1QiS_V0F-31" value="" style="shape=ellipse;dashed=0;strokeColor=#d79b00;shadow=1;fontSize=13;align=center;verticalAlign=top;labelPosition=center;verticalLabelPosition=bottom;html=1;aspect=fixed;fillColor=#ffe6cc;" vertex="1" parent="1">
          <mxGeometry x="420" y="282" width="56" height="56" as="geometry" />
        </mxCell>
        <mxCell id="ECK3vgAFCEgA1QiS_V0F-32" value="" style="dashed=0;html=1;shape=mxgraph.gmdl.edit;strokeColor=none;fillColor=#737373;shadow=0;sketch=0;html=1;labelPosition=center;verticalLabelPosition=bottom;align=center;verticalAlign=top;" vertex="1" parent="ECK3vgAFCEgA1QiS_V0F-31">
          <mxGeometry x="18" y="18" width="20" height="20" as="geometry" />
        </mxCell>
        <mxCell id="ECK3vgAFCEgA1QiS_V0F-33" value="" style="shape=ellipse;dashed=0;strokeColor=#b85450;shadow=1;fontSize=13;align=center;verticalAlign=top;labelPosition=center;verticalLabelPosition=bottom;html=1;aspect=fixed;fillColor=#f8cecc;" vertex="1" parent="1">
          <mxGeometry x="490" y="280" width="56" height="56" as="geometry" />
        </mxCell>
        <mxCell id="ECK3vgAFCEgA1QiS_V0F-34" value="" style="dashed=0;html=1;shape=mxgraph.gmdl.x;strokeColor=#737373;strokeWidth=2;shadow=0;sketch=0;html=1;labelPosition=center;verticalLabelPosition=bottom;align=center;verticalAlign=top;" vertex="1" parent="ECK3vgAFCEgA1QiS_V0F-33">
          <mxGeometry x="20" y="20" width="16" height="16" as="geometry" />
        </mxCell>
        <mxCell id="ECK3vgAFCEgA1QiS_V0F-35" value="" style="html=1;shadow=0;dashed=0;shape=mxgraph.bootstrap.checkbox2;labelPosition=right;verticalLabelPosition=middle;align=left;verticalAlign=middle;gradientColor=#DEDEDE;fillColor=#EDEDED;checked=0;spacing=5;checkedFill=#0085FC;checkedStroke=#ffffff;sketch=0;" vertex="1" parent="1">
          <mxGeometry x="40" y="296.5" width="30" height="27" as="geometry" />
        </mxCell>
      </root>
    </mxGraphModel>
  </diagram>
</mxfile>
